<?xml version="1.0" encoding="UTF-8"?>
<svg width="182px" height="159px" viewBox="0 0 182 159" version="1.1" xmlns="http://www.w3.org/2000/svg" xmlns:xlink="http://www.w3.org/1999/xlink">
    <!-- Generator: Sketch 58 (84663) - https://sketch.com -->
    <title>Illustration/right</title>
    <desc>Created with Sketch.</desc>
    <g id="Page-1" stroke="none" stroke-width="1" fill="none" fill-rule="evenodd">
        <g id="1115" transform="translate(-885.000000, -1.000000)" fill-rule="nonzero">
            <g id="Illustration/right" transform="translate(885.000000, 1.000000)">
                <g id="Group-2" transform="translate(0.000000, 0.866806)">
                    <path d="M108.115941,27.3335667 C108.115941,46.8968699 86.7179881,62.2917415 67.3287884,62.2917415 C47.9395887,62.2917415 20.218934,47.4503355 20.218934,27.88668 C20.218934,8.32372912 35.8437728,-13.8885292 60.0483237,11.1717346 C77.1756247,28.9044791 108.115941,7.77061574 108.115941,27.3335667" id="Fill-55" fill="#D1F4F2" opacity="0.292852493"></path>
                    <path d="M63.3474215,82.9184106 C64.3482819,84.3432729 74.9206894,96.7010715 80.6412791,81.4003559 C86.3618688,66.1001309 54.942331,70.9515294 63.3474215,82.9184106" id="Fill-56" fill="#00C7B7" opacity="0.134137835"></path>
                    <path d="M153.560588,46.3704725 C131.790296,32.5618158 113.314442,56.8153751 94.4583487,76.4431595 C57.0312203,123.13597 100.138632,155.003836 103.07614,157.091345 C129.772064,156.992267 150.947473,156.816673 159.675014,156.522872 C193.872777,155.372191 183.914192,65.6245064 153.560588,46.3704725" id="Fill-57" fill="#D1F4F2" opacity="0.292852493"></path>
                    <path d="M86.1263437,88.1547427 C86.1263437,88.1547427 80.4713125,52.4998327 117.858134,56.0470285 C117.858134,56.0470285 140.289839,55.1720012 139.065109,83.7114286 C134.430848,118.458939 154.931247,123.904316 147.547898,142.22986 C141.264476,161.983209 63.5654644,164.15312 63.3483928,131.786919 C63.2750643,120.81082 66.9327453,114.480606 75.0824004,110.870628 C83.2315699,107.261631 88.7967616,97.9914425 86.1263437,88.1547427" id="Fill-58" fill="#00C7B7"></path>
                    <path d="M128.568215,150.574844 C128.568215,150.574844 130.941434,149.764561 131.32313,150.715614 C132.844574,152.675597 135.765571,153.823334 137.17338,154.244662 C138.581675,154.665989 138.086344,155.519926 135.817533,155.455672 C133.835722,155.614099 130.810803,155.455672 130.810803,155.455672 L129.350061,154.41388 L129.170382,155.490006 L127.264328,155.519926 C127.264328,155.519926 127.577067,150.223166 128.568215,150.574844" id="Fill-59" fill="#0C2C4E"></path>
                    <path d="M88.3522747,150.601184 C88.3522747,150.601184 85.9790555,149.7909 85.5973591,150.742444 C84.0759153,152.701936 81.1554037,153.849673 79.7471092,154.271001 C78.3388146,154.692329 78.8341458,155.546265 81.1029569,155.482502 C83.0852529,155.640438 86.1101726,155.482502 86.1101726,155.482502 L87.5704284,154.440219 L87.750593,155.516345 L89.6566469,155.546265 C89.6566469,155.546265 89.3434227,150.249505 88.3522747,150.601184" id="Fill-60" fill="#0C2C4E"></path>
                    <path d="M86.29767,147.256411 C86.29767,147.256411 86.0325221,149.159988 85.8271054,150.528935 C85.6207174,151.897391 87.6821693,152.730237 88.4479902,150.945358 C88.9782859,148.446331 89.2434338,147.256411 89.2434338,147.256411 L86.29767,147.256411 Z" id="Fill-61" fill="#F09F45"></path>
                    <path d="M130.542935,147.137125 C130.542935,147.137125 130.808083,149.041192 131.014471,150.410139 C131.220859,151.778105 129.158922,152.611441 128.393101,150.826071 C127.862805,148.327535 127.597657,147.137125 127.597657,147.137125 L130.542935,147.137125 Z" id="Fill-62" fill="#F09F45"></path>
                    <path d="M94.5880575,93.0778012 L95.5121901,99.8872205 L88.1686622,111.549019 L93.2346378,112.262677 C93.2346378,112.262677 100.523776,102.747736 101.081267,100.841216 C101.638757,98.9351869 101.010366,92.3906301 101.010366,92.3906301 L94.5880575,93.0778012 Z" id="Fill-63" fill="#B3744B"></path>
                    <path d="M99.8717359,107.590698 C99.8717359,107.590698 92.9599232,109.891078 84.3591282,122.980682 C83.5340619,127.502964 86.2807219,147.380406 86.2807219,147.380406 L89.2182302,147.494689 C89.2182302,147.494689 95.787196,130.675919 92.3315325,126.193857 C96.3369165,123.456944 102.584403,121.429274 107.019074,115.365394 C108.550716,118.935152 116.051584,124.726813 123.827798,126.193857 C124.063323,129.525729 120.175459,132.857602 127.597657,147.137125 L130.542935,147.137125 C130.542935,147.137125 131.289331,122.583879 130.542935,120.957917 C129.797025,119.331465 116.839258,108.205768 116.721252,107.848694 C116.603733,107.49162 99.8717359,107.590698 99.8717359,107.590698" id="Fill-64" fill="#0C2C4E"></path>
                    <path d="M122.26464,92.9058368 C122.26464,79.2384401 106.630627,79.2703211 106.630627,79.2703211 C92.7234754,80.6221016 94.5358049,94.0859465 94.5358049,94.0859465 L99.6483998,93.6474519 C99.7440668,102.163272 100.052435,108.289445 100.052435,108.289445 C100.052435,108.289445 109.349607,113.129071 116.781032,107.89117 C117.570163,103.486114 117.064148,97.5997893 117.255482,92.9058368 C118.558397,92.9058368 120.69949,93.0009911 122.26464,92.9058368" id="Fill-65" fill="#F09F45"></path>
                    <path d="M110.992601,72.5430098 C110.593908,68.5749768 104.141491,67.329142 103.332936,70.8871286 C103.332936,70.8871286 102.814295,77.3757699 106.490429,77.655347 C106.520052,77.656328 106.549189,77.656328 106.578812,77.6568185 C106.569099,78.6701629 106.55016,79.9174691 106.513253,80.8994224 C107.851619,82.1295617 108.709222,80.7076423 108.709222,80.7076423 L108.863163,77.1776135 C110.218525,76.5159477 111.250465,75.1028571 110.992601,72.5430098" id="Fill-66" fill="#B3744B"></path>
                    <path d="M115.880695,92.9058368 L122.271438,92.9058368 C122.271438,92.9058368 121.961614,99.4641272 120.662583,101.195543 C119.363553,102.92745 109.994994,108.931981 106.615087,110.136615 C105.478254,111.700776 104.76148,113.23894 102.37175,112.359008 C99.98202,111.479076 98.4231836,114.002137 98.4231836,114.002137 C98.4231836,114.002137 96.5525798,115.839007 99.0467181,109.593647 C100.553108,107.33692 104.969811,108.124641 104.969811,108.124641 L115.777258,98.3109942 L115.880695,92.9058368 Z" id="Fill-67" fill="#B3744B"></path>
                    <path d="M110.960016,68.7862783 C110.235959,67.1671835 107.89479,65.2400634 104.965537,66.9812892 C104.965537,66.9812892 103.477116,65.1743382 101.630307,65.9512683 C99.7839846,66.7281984 99.787384,71.2190896 103.152237,70.8958592 C105.531769,70.833077 108.806297,70.637373 109.121463,72.3584889 C109.186536,72.7155629 109.20936,73.1339475 109.204504,73.5729326 C109.21713,73.5719517 109.229756,73.5685183 109.242868,73.5685183 C109.696436,73.5685183 110.064535,73.9407973 110.064535,74.3989113 C110.064535,74.8570254 109.696436,75.2293044 109.242868,75.2293044 C109.189936,75.2293044 109.138946,75.2229281 109.088441,75.2131183 C108.958295,76.3191646 108.765019,77.225583 108.765019,77.225583 C108.765019,77.225583 116.418372,73.0417361 110.960016,68.7862783" id="Fill-68" fill="#0C2C4E"></path>
                    <polygon id="Fill-69" fill="#4E5D76" points="80.4764115 119.52094 103.88421 119.52094 111.835247 111.778616 89.5681671 110.469999"></polygon>
                    <polygon id="Fill-70" fill="#4E5D76" points="103.884016 119.52094 80.6413277 119.52094 77.1380735 103.579649 101.865298 103.579649"></polygon>
                    <polygon id="Fill-71" fill="#4E5D76" points="80.6412791 120.221109 103.883967 120.221109 103.883967 119.520695 80.6412791 119.520695"></polygon>
                    <polygon id="Fill-72" fill="#4E5D76" points="111.871037 112.258458 103.884064 120.221011 103.864154 119.501468 111.835587 111.778273"></polygon>
                    <path d="M92.2193545,111.778518 C92.2193545,112.731532 91.4545049,113.504539 90.5109475,113.504539 C89.5673901,113.504539 88.8025405,112.731532 88.8025405,111.778518 C88.8025405,110.825994 89.5673901,110.052987 90.5109475,110.052987 C91.4545049,110.052987 92.2193545,110.825994 92.2193545,111.778518" id="Fill-73" fill="#FFFFFF"></path>
                    <path d="M38.5125835,151.431282 C38.5125835,151.431282 36.1393644,150.62149 35.757668,151.572542 C34.2362242,153.532034 31.3157126,154.679772 29.907418,155.1011 C28.4991234,155.522427 28.9944546,156.376854 31.2632657,156.312601 C33.2450762,156.470537 36.2704814,156.312601 36.2704814,156.312601 L37.7302516,155.270317 L37.9109018,156.346935 L39.8169557,156.376854 C39.8169557,156.376854 39.5037316,151.079604 38.5125835,151.431282" id="Fill-74" fill="#0C2C4E"></path>
                    <path d="M36.4578332,148.086952 C36.4578332,148.086952 36.1926853,149.990528 35.9867829,151.358985 C35.7808805,152.727441 37.8423324,153.560286 38.6081533,151.775407 C39.1384491,149.276871 39.403597,148.086952 39.403597,148.086952 L36.4578332,148.086952 Z" id="Fill-75" fill="#F09F45"></path>
                    <path d="M51.6885391,151.431282 C51.6885391,151.431282 49.31532,150.62149 48.9331379,151.572542 C47.4116942,153.532034 44.4911826,154.679772 43.0833736,155.1011 C41.6745934,155.522427 42.1704102,156.376854 44.4392214,156.312601 C46.4210318,156.470537 49.4459514,156.312601 49.4459514,156.312601 L50.9062072,155.270317 L51.0863718,156.346935 L52.9924257,156.376854 C52.9924257,156.376854 52.6792015,151.079604 51.6885391,151.431282" id="Fill-76" fill="#0C2C4E"></path>
                    <path d="M49.6339345,148.086952 C49.6339345,148.086952 49.3687866,149.990528 49.1623986,151.358985 C48.9564962,152.727441 51.0184337,153.560286 51.783769,151.775407 C52.3145504,149.276871 52.5792126,148.086952 52.5792126,148.086952 L49.6339345,148.086952 Z" id="Fill-77" fill="#F09F45"></path>
                    <path d="M34.0478526,88.4205862 C34.0478526,88.4205862 26.3114592,114.295202 26.4289789,117.244495 C26.5469843,120.192808 36.2855842,149.347305 36.2855842,149.347305 C36.2855842,149.347305 38.2897331,149.347305 39.0749787,149.426763 C40.3312746,147.383889 40.7202553,120.89126 36.7580913,115.264403 C40.9242152,105.612126 44.7300099,103.414257 45.3584007,93.4181496 C48.1070032,84.0577118 36.9537957,86.9138127 34.0478526,88.4205862" id="Fill-78" fill="#F09F45"></path>
                    <path d="M42.6092639,88.0426175 L42.6092639,101.034124 L41.8240183,117.396252 L49.442892,149.246461 C49.442892,149.246461 50.8065097,149.442165 52.2978451,149.375949 C52.9913088,148.786385 56.825755,124.001138 50.3068079,117.693977 C53.2001249,108.755357 60.5169437,98.3369409 53.8411417,87.547717 C47.9496141,87.0719454 42.6092639,88.0426175 42.6092639,88.0426175" id="Fill-79" fill="#F09F45"></path>
                    <path d="M59.1038415,71.6022574 C59.1038415,71.6022574 59.8745185,57.482142 45.3584007,56.6880449 C29.3592029,55.8125271 28.350087,71.7901136 28.350087,71.7901136 L34.2833778,71.9966082 C33.4976465,79.4539597 34.0478526,88.4205371 34.0478526,88.4205371 C34.0478526,88.4205371 45.1223899,94.5295422 53.8411903,87.5479622 C54.2913589,83.5769863 53.586726,81.7872024 53.4488103,71.6022574 L59.1038415,71.6022574 Z" id="Fill-80" fill="#0C2C4E"></path>
                    <polygon id="Fill-81" fill="#4E5D76" points="41.4168755 76.907748 46.4575989 76.907748 46.4575989 67.0013992 41.4168755 67.0013992"></polygon>
                    <path d="M53.1735129,71.5826379 L59.10389,71.6022574 C59.10389,71.6022574 59.2612305,80.8842174 57.3755726,82.6288766 C55.4904004,84.3745168 44.2162737,77.654366 44.2162737,77.654366 C44.2162737,77.654366 39.0264654,75.2387217 40.518772,71.8891918 C42.0115643,68.5391713 42.3932607,75.033208 43.5126121,71.5458515 C44.6732411,71.5321179 45.7644266,75.6620113 45.7644266,75.6620113 L53.2322728,77.4866198 L53.1735129,71.5826379 Z" id="Fill-82" fill="#F19781"></path>
                    <path d="M41.4567448,49.9245842 C41.8554378,45.9565512 48.3078551,44.7102259 49.1164105,48.2687029 C49.1164105,48.2687029 49.6345658,54.7568538 45.9589169,55.0364309 C45.9292941,55.0379023 45.8996714,55.0374118 45.8705343,55.0379023 C45.8802466,56.0507562 45.8991858,57.298553 45.9360928,58.2805063 C44.5977273,59.5111361 43.7401245,58.0892167 43.7401245,58.0892167 L43.5861833,54.5591878 C42.2308212,53.8970315 41.1993668,52.4844314 41.4567448,49.9245842" id="Fill-83" fill="#F19781"></path>
                    <path d="M41.4893784,46.1678526 C42.2139217,44.5487578 44.55509,42.6211472 47.4838571,44.3628636 C47.4838571,44.3628636 48.9722788,42.5559126 50.8190872,43.3323522 C52.66541,44.1097727 52.6620106,48.6001735 49.2971578,48.2779241 C46.9176256,48.2146513 43.6426122,48.0189474 43.3279312,49.7400633 C43.2628583,50.0971372 43.2400342,50.5150314 43.2448904,50.953526 C43.2322643,50.9530355 43.2196382,50.9500926 43.2065265,50.9500926 C42.7529585,50.9500926 42.3848595,51.3218811 42.3848595,51.7799952 C42.3848595,52.2385998 42.7529585,52.6103883 43.2065265,52.6103883 C43.259459,52.6103883 43.310449,52.6040119 43.3609533,52.5951832 C43.4910992,53.700739 43.6838898,54.6071574 43.6838898,54.6071574 C43.6838898,54.6071574 36.0310228,50.42282 41.4893784,46.1678526" id="Fill-84" fill="#0C2C4E"></path>
                    <path d="M34.2832321,71.5826379 L28.352855,71.6022574 C28.352855,71.6022574 28.1955145,80.8842174 30.0806868,82.6288766 C31.9663447,84.3745168 43.2404713,77.654366 43.2404713,77.654366 C43.2404713,77.654366 48.4307653,75.2387217 46.9374874,71.8891918 C45.4451807,68.5391713 45.0634843,75.033208 43.944133,71.5458515 C42.783504,71.5321179 41.6923185,75.6620113 41.6923185,75.6620113 L34.2244722,77.4866198 L34.2832321,71.5826379 Z" id="Fill-85" fill="#F19781"></path>
                    <path d="M42.5893536,67.6256899 C42.5893536,67.8395419 42.4179301,68.0126835 42.206686,68.0126835 C41.9954417,68.0126835 41.8240183,67.8395419 41.8240183,67.6256899 C41.8240183,67.411838 41.9954417,67.2391868 42.206686,67.2391868 C42.4179301,67.2391868 42.5893536,67.411838 42.5893536,67.6256899" id="Fill-86" fill="#0C2C4E"></path>
                    <path d="M44.7121391,69.3811889 C44.7121391,69.8128167 44.3654073,70.1630239 43.9375771,70.1630239 C43.5097469,70.1630239 43.1630151,69.8128167 43.1630151,69.3811889 C43.1630151,68.9490706 43.5097469,68.598373 43.9375771,68.598373 C44.3654073,68.598373 44.7121391,68.9490706 44.7121391,69.3811889" id="Fill-87" fill="#FFFFFF"></path>
                    <path d="M45.4299323,41.3817868 L45.0953409,40.2404256 C45.118165,40.2335588 45.669828,40.0697364 46.5313158,39.9064045 L46.7483874,41.0757235 C45.9519725,41.2272837 45.4352741,41.3798249 45.4299323,41.3817868" id="Fill-88" fill="#F1CAC1"></path>
                    <path d="M52.1271986,41.007693 C51.4356774,40.8507375 50.6586873,40.7707882 49.8180811,40.7707882 C49.6981333,40.7707882 49.5791567,40.7722597 49.4611513,40.7752026 L49.4315285,39.5857737 C49.5592463,39.5828308 49.6879353,39.5808688 49.8180811,39.5808688 C50.7460987,39.5808688 51.609529,39.6701373 52.3855478,39.8467123 L52.1271986,41.007693 Z M55.9067699,44.0688171 C55.5969451,43.2452909 55.107927,42.567439 54.4533128,42.054881 L55.175428,41.114619 C56.0038937,41.7630417 56.620144,42.6150162 57.0081534,43.6465086 L55.9067699,44.0688171 Z M57.2077428,49.6029724 L56.0509987,49.3783297 C56.2350483,48.4101101 56.3282871,47.508106 56.3282871,46.6983134 L56.3282871,46.6556411 L57.5063983,46.6556411 L57.5063983,46.6983134 C57.5063983,47.5831504 57.4063609,48.5606893 57.2077428,49.6029724 L57.2077428,49.6029724 Z M100.455013,53.4204261 L100.325352,52.2373735 C101.219862,52.1368239 102.176046,52.0573651 103.167679,51.9999782 L103.235666,53.1884262 C102.263943,53.2443416 101.328641,53.3223289 100.455013,53.4204261 L100.455013,53.4204261 Z M95.0238518,54.4651616 L94.6892604,53.3242909 C95.549777,53.0667856 96.4928487,52.841162 97.4922523,52.6542868 L97.7068958,53.8240962 C96.7482842,54.0036142 95.8450332,54.2194281 95.0238518,54.4651616 L95.0238518,54.4651616 Z M57.0295207,55.2582778 C56.7527179,54.3523498 56.5205921,53.3983543 56.3399419,52.4222868 L57.4976572,52.20353 C57.6705375,53.1349632 57.8914941,54.0443245 58.1556707,54.9070897 L57.0295207,55.2582778 Z M90.1666923,56.8342098 L89.4557464,55.8851191 C90.2210816,55.3004596 91.0432343,54.8006542 91.969795,54.3592166 L92.4724105,55.4348528 C91.6206351,55.8414658 90.866469,56.2990894 90.1666923,56.8342098 L90.1666923,56.8342098 Z M59.462471,60.5707333 C58.9433444,59.7668265 58.4718086,58.9001375 58.060975,57.9961715 L59.1317645,57.499309 C59.5183171,58.350793 59.9616871,59.1659809 60.449734,59.9213296 L59.462471,60.5707333 Z M86.4939572,60.9032829 L85.5470004,60.1960019 L85.5848787,60.1440103 C86.1239156,59.4073001 86.6818916,58.6455751 87.3175667,57.9137698 L88.2033354,58.6980572 C87.5997112,59.393076 87.0567894,60.1346911 86.5318354,60.8512914 L86.4939572,60.9032829 Z M63.3984115,64.9022165 C62.6330763,64.3077473 61.9090186,63.6352908 61.2461489,62.9025045 L62.1163778,62.0995786 C62.7326281,62.7813544 63.4056958,63.4067242 64.1171274,63.9590116 L63.3984115,64.9022165 Z M82.5570454,65.1920938 L81.8533837,64.2371173 C82.5507323,63.7132781 83.1975766,63.1089991 83.8317948,62.3899464 L84.7117361,63.1811006 C84.0240998,63.9614641 83.3189813,64.6196965 82.5570454,65.1920938 L82.5570454,65.1920938 Z M68.5921048,67.5881187 C67.656803,67.3075606 66.7414115,66.9367531 65.8716682,66.4859963 L66.4092482,65.4270367 C67.2144042,65.8444404 68.0618091,66.1877807 68.9276675,66.4477384 L68.5921048,67.5881187 Z M77.2817681,67.7097593 L76.9806844,66.5595692 C77.853827,66.3260978 78.7133724,66.0116962 79.5350394,65.6237216 L80.0342556,66.7013197 C79.1480012,67.1192139 78.2224117,67.4586304 77.2817681,67.7097593 L77.2817681,67.7097593 Z M73.1399251,68.2556704 C72.5814635,68.2551799 72.0181456,68.2257507 71.4655114,68.1668924 L71.588373,66.9833493 C72.4828829,67.0785036 73.4011881,67.0907657 74.3029822,67.0191548 L74.3947642,68.2056408 C73.9785888,68.2389938 73.5565861,68.2556704 73.1399251,68.2556704 L73.1399251,68.2556704 Z" id="Fill-89" fill="#F1CAC1"></path>
                    <path d="M106.134519,53.0825793 L106.115094,51.8931504 C106.577889,51.8857931 107.052824,51.8818692 107.539414,51.8818692 L107.539414,53.0717886 C107.059137,53.0717886 106.590515,53.075222 106.134519,53.0825793" id="Fill-90" fill="#F1CAC1"></path>
                    <path d="M163.358287,157.028269 C163.358287,157.384852 163.072258,157.673258 162.719213,157.673258 L0.639074372,157.673258 C0.286029487,157.673258 -1.13686838e-13,157.384852 -1.13686838e-13,157.028269 C-1.13686838e-13,156.671685 0.286029487,156.38328 0.639074372,156.38328 L162.719213,156.38328 C163.072258,156.38328 163.358287,156.671685 163.358287,157.028269" id="Fill-91" fill="#4E5D76"></path>
                    <path d="M176.155363,157.673454 L170.111351,157.673454 C169.758792,157.673454 169.472762,157.384558 169.472762,157.028465 C169.472762,156.671882 169.758792,156.382985 170.111351,156.382985 L176.155363,156.382985 C176.507922,156.382985 176.793952,156.671882 176.793952,157.028465 C176.793952,157.384558 176.507922,157.673454 176.155363,157.673454" id="Fill-92" fill="#4E5D76"></path>
                    <polygon id="Fill-93" fill="#00C7B7" points="33.5849122 39.0026347 33.5849122 43.2698642 33.5849122 50.1219558 33.5849122 53.339545 29.7106452 50.1219558 12.573157 50.1219558 12.573157 39.0026347"></polygon>
                    <polygon id="Fill-94" fill="#FFFFFF" points="14.6534509 42.8322034 31.5223919 42.8322034 31.5223919 41.8801698 14.6534509 41.8801698"></polygon>
                    <polygon id="Fill-95" fill="#FFFFFF" points="14.6534509 45.0545962 31.5223919 45.0545962 31.5223919 44.1020721 14.6534509 44.1020721"></polygon>
                    <polygon id="Fill-96" fill="#FFFFFF" points="14.6534509 47.2764985 28.7213426 47.2764985 28.7213426 46.3244649 14.6534509 46.3244649"></polygon>
                    <polygon id="Fill-97" fill="#F19781" points="122.106959 62.2121452 122.106959 66.4793747 122.106959 73.3314663 122.106959 76.549546 125.981226 73.3314663 143.118715 73.3314663 143.118715 62.2121452"></polygon>
                    <polygon id="Fill-98" fill="#FFFFFF" points="124.18769 66.0415178 141.056631 66.0415178 141.056631 65.0894841 124.18769 65.0894841"></polygon>
                    <polygon id="Fill-99" fill="#FFFFFF" points="124.18769 68.264401 141.056631 68.264401 141.056631 67.3123674 124.18769 67.3123674"></polygon>
                    <polygon id="Fill-100" fill="#FFFFFF" points="124.18769 70.4867938 138.255582 70.4867938 138.255582 69.5342697 124.18769 69.5342697"></polygon>
                </g>
            </g>
        </g>
    </g>
</svg>