<?xml version="1.0" encoding="UTF-8"?>
<svg width="195px" height="159px" viewBox="0 0 195 159" version="1.1" xmlns="http://www.w3.org/2000/svg" xmlns:xlink="http://www.w3.org/1999/xlink">
    <!-- Generator: Sketch 58 (84663) - https://sketch.com -->
    <title>Illustration/left</title>
    <desc>Created with Sketch.</desc>
    <defs>
        <path d="M0.392112,5.52384 C0.392112,5.52384 12.659472,15.535296 11.159064,22.474368 L11.159064,22.474368 C9.65916,29.412936 14.440608,30.8196 17.253936,32.796288 L17.253936,32.796288 C20.067264,34.772976 18.941832,35.19936 18.941832,35.19936 L18.941832,35.19936 L21.473424,35.19936 C21.473424,35.19936 22.22388,30.163392 20.817216,28.10052 L20.817216,28.10052 C19.411056,26.037648 21.285936,22.193136 24.380496,16.94196 L24.380496,16.94196 C27.474552,11.691288 18.386424,0.346752 18.386424,0.346752 L18.386424,0.346752 L0.392112,5.52384 Z" id="path-1"></path>
        <linearGradient x1="64.4391297%" y1="119.010727%" x2="43.8710178%" y2="-13.3107243%" id="linearGradient-3">
            <stop stop-color="#FFFFFF" offset="0%"></stop>
            <stop stop-color="#FFFFFF" offset="100%"></stop>
        </linearGradient>
    </defs>
    <g id="Page-1" stroke="none" stroke-width="1" fill="none" fill-rule="evenodd">
        <g id="1115">
            <g id="Illustration/left">
                <path d="M183.923762,85.9987637 C181.038866,82.5871877 178.304162,78.4468277 175.668746,73.8563957 C165.577154,56.2798997 156.924986,32.1781157 146.720498,17.7233957 C127.384034,-9.66648433 90.4907304,-3.30802033 85.6649304,23.1035957 C80.8386264,49.5152117 51.3616824,55.8741797 22.0157784,89.6658677 C-7.3301256,123.457556 30.3302664,157.611116 30.3302664,157.611116 C30.3302664,157.611116 106.226114,157.829348 178.097522,157.799108 L178.097522,157.799108 C203.830754,132.173732 193.194842,102.299132 183.923762,85.9987637" id="Fill-1" fill="#D1F4F2" fill-rule="nonzero" opacity="0.372581845"></path>
                <path d="M131.150477,156.960401 C139.749221,156.960401 146.720549,149.989073 146.720549,141.389825 L115.580405,141.389825 C115.580405,149.989073 122.551229,156.960401 131.150477,156.960401" id="Fill-3" fill="#0C2C4E" fill-rule="nonzero"></path>
                <path d="M132.872645,141.403836 L124.965893,141.462804 C124.965893,141.462804 126.269237,133.6503 117.274853,127.028748 C112.827557,123.27294 108.361109,111.72378 113.698469,104.887524 C119.035325,98.0507645 122.494781,91.0376045 118.442621,85.1549165 C121.308365,85.3010765 128.784197,87.0812045 125.459813,100.620156 C124.793021,103.335204 122.593061,106.45194 134.157341,116.137812 C136.232813,118.509636 138.506357,123.05622 133.564133,130.567836 C131.389877,134.22486 132.872645,141.403836 132.872645,141.403836" id="Fill-5" fill="#96D4CC" fill-rule="nonzero"></path>
                <path d="M129.707575,141.253241 C129.760999,140.636849 130.949431,126.111569 126.057103,121.538273 C119.003623,114.942425 117.716407,106.940921 122.233255,97.7550173 L121.701535,97.4934413 C117.056167,106.941425 118.385215,115.176785 125.652391,121.970705 C130.336063,126.349961 129.129487,141.054161 129.117391,141.202337 L129.707575,141.253241 Z" id="Fill-7" fill="#FFFFFF" fill-rule="nonzero"></path>
                <path d="M128.419452,141.390077 L138.201588,141.463157 C138.201588,141.463157 136.588788,131.797949 147.7161,123.605429 C153.218268,118.958549 158.744124,104.671157 152.14122,96.2130293 C145.537812,87.7554053 141.258348,79.0790453 146.271636,71.8007813 C142.725492,71.9817173 133.477092,74.1836933 137.590236,90.9346373 C138.41478,94.2932933 141.135876,98.1488933 126.829836,110.131493 C124.261956,113.066789 121.449636,118.691429 127.563156,127.984181 C130.253508,132.508085 128.419452,141.390077 128.419452,141.390077" id="Fill-9" fill="#4CABA0" fill-rule="nonzero"></path>
                <path d="M132.334474,141.203496 C132.268954,140.440944 130.798282,122.470824 136.850314,116.812416 C145.577578,108.65316 147.16921,98.7530885 141.581866,87.3894005 L142.24009,87.0653285 C147.987202,98.7535925 146.34265,108.942456 137.351794,117.348672 C131.557306,122.766168 133.04965,140.957544 133.065778,141.140496 L132.334474,141.203496 Z" id="Fill-11" fill="#FFFFFF" fill-rule="nonzero"></path>
                <path d="M115.580506,141.390077 C115.580506,149.989325 122.55133,156.960653 131.150578,156.960653 L131.150578,141.390077 L115.580506,141.390077 Z" id="Fill-13" fill="#0C2C4E" fill-rule="nonzero"></path>
                <polygon id="Fill-15" fill="#00C7B7" fill-rule="nonzero" points="95.8821696 114.652474 95.8821696 113.42977 95.8821696 113.170714 95.8821696 73.8012581 72.4638096 73.8012581 72.4638096 113.170714 62.6927616 113.170714 62.6927616 114.16309 62.6927616 119.332618 62.6927616 157.225354 63.9830016 157.225354 63.9830016 119.332618 84.7251216 119.332618 84.7251216 157.444594 86.0143536 157.444594 86.0143536 119.332618 94.6539216 119.332618 94.6539216 157.71373 95.9436576 157.71373 95.9436576 114.652474"></polygon>
                <path d="M75.9111696,149.750328 C75.9111696,149.750328 73.3125456,149.811816 73.2747456,150.866184 C72.4809456,153.298488 70.0375536,155.445528 68.8123296,156.352728 C67.5876096,157.259424 68.3713296,157.908576 70.5612096,157.040184 C72.5494896,156.4878 75.4429536,155.260056 75.4429536,155.260056 L76.5003456,153.734448 L77.0547456,154.709184 L78.9235776,154.060536 C78.9235776,154.060536 76.7538576,149.05884 75.9111696,149.750328" id="Fill-17" fill="#0C2C4E" fill-rule="nonzero"></path>
                <path d="M76.8861072,61.2860309 C74.5314192,61.2860309 72.6142032,63.1745189 72.4927392,65.5493669 L72.4811472,65.5493669 L72.4811472,77.9754869 L81.6000192,77.9754869 L81.6000192,65.5493669 C81.6000192,63.0636389 79.3184112,61.2860309 76.8861072,61.2860309" id="Fill-19" fill="#0C2C4E" fill-rule="nonzero"></path>
                <path d="M64.1078424,118.08794 C62.7339384,120.55754 73.5346584,150.02642 73.5346584,150.02642 L74.6207784,149.798612 L74.6207784,123.351212 L76.2189624,113.757572 C76.2189624,113.757572 65.4817464,115.61834 64.1078424,118.08794" id="Fill-21" fill="#F2B892" fill-rule="nonzero"></path>
                <path d="M74.6206776,114.077108 C74.6206776,114.077108 71.4233016,115.87286 70.6819176,120.110492 C69.9400296,124.348628 73.5345576,150.02642 73.5345576,150.02642 C73.5345576,150.02642 73.6570296,153.77618 76.3877016,150.005756 C80.0457336,131.465612 78.2015976,123.431348 78.2015976,123.431348 L84.0076776,117.773444 C84.0076776,117.773444 79.1486136,112.06262 74.6206776,114.077108" id="Fill-23" fill="#F2B892" fill-rule="nonzero"></path>
                <path d="M94.0346568,96.8391989 C94.6828008,71.9476469 76.4062488,73.8275669 76.4062488,73.8275669 C57.5793288,75.2533829 62.5633848,97.9268309 62.5633848,97.9268309 C62.5633848,97.9268309 67.7671848,97.7836949 70.7634648,97.5523589 C70.7891688,99.8410229 70.4000808,101.064735 70.4000808,103.198671 C64.7310888,110.246103 64.1076408,118.035927 64.1076408,118.035927 C64.1076408,118.035927 65.1640248,114.985719 82.8110808,119.177487 C93.7514088,111.387159 86.0885928,103.072671 88.0451208,97.0952309 C90.4350888,96.8623829 94.0633848,96.9258869 94.0346568,96.8391989" id="Fill-25" fill="#4CABA0" fill-rule="nonzero"></path>
                <path d="M82.664568,92.8480733 L86.967216,92.6686493 L87.017112,88.5746573 L93.408336,88.4118653 C93.408336,88.4118653 95.717664,99.0901133 92.721888,99.0901133 C90.266904,99.1279133 82.664568,99.1228733 82.664568,99.1228733 L82.664568,92.8480733 Z" id="Fill-27" fill="#F2B892" fill-rule="nonzero"></path>
                <path d="M79.5384072,67.6426301 C79.4517192,67.6426301 79.3685592,67.6577501 79.2889272,67.6789181 C79.2702792,66.7102301 79.0404552,65.9214701 78.5636712,65.7989981 C75.3088392,66.3241661 73.9858392,65.8856861 73.4974632,65.2723181 C73.3744872,67.3074701 73.4959512,70.6847741 75.4665912,71.8651421 C75.5008632,72.9356381 75.5421912,73.9542221 75.6127512,75.7091501 C76.7235672,77.2896941 78.0390072,76.2716141 78.3111672,75.7036061 C78.4109592,74.1633821 78.2421192,71.2966301 78.2421192,71.2966301 C78.4830312,70.8798221 78.9814872,70.0608221 79.1059752,69.4872701 C79.2370152,69.5522861 79.3821672,69.5926061 79.5384072,69.5926061 C80.7893352,69.5926061 80.9617032,67.4737901 79.5384072,67.6426301" id="Fill-29" fill="#F2B892" fill-rule="nonzero"></path>
                <polygon id="Fill-31" fill="#4E5D76" fill-rule="nonzero" points="61.5579552 99.1230245 85.3699392 99.1230245 85.3699392 81.8368325 61.5579552 81.8368325"></polygon>
                <path d="M74.6206776,90.1538405 C74.6206776,91.0655765 73.8818136,91.8039365 72.9705816,91.8039365 C72.0588456,91.8039365 71.3199816,91.0655765 71.3199816,90.1538405 C71.3199816,89.2421045 72.0588456,88.5037445 72.9705816,88.5037445 C73.8818136,88.5037445 74.6206776,89.2421045 74.6206776,90.1538405" id="Fill-33" fill="#FFFFFF" fill-rule="nonzero"></path>
                <path d="M106.857727,156.692172 C106.857727,157.1997 107.249839,157.610964 107.733175,157.610964 C108.216007,157.610964 108.608119,157.1997 108.608119,156.692172 L108.608119,100.286004 C108.608119,99.7784765 108.216007,99.3677165 107.733175,99.3677165 C107.249839,99.3677165 106.857727,99.7784765 106.857727,100.286004 L106.857727,156.692172 Z" id="Fill-34" fill="#4E5D76" fill-rule="nonzero"></path>
                <path d="M36.4265496,156.692172 C36.4265496,157.1997 36.8186616,157.610964 37.3019976,157.610964 C37.7853336,157.610964 38.1769416,157.1997 38.1769416,156.692172 L38.1769416,100.286004 C38.1769416,99.7784765 37.7853336,99.3677165 37.3019976,99.3677165 C36.8186616,99.3677165 36.4265496,99.7784765 36.4265496,100.286004 L36.4265496,156.692172 Z" id="Fill-35" fill="#4E5D76" fill-rule="nonzero"></path>
                <path d="M108.587354,99.8356301 C108.587354,99.4425101 108.267818,99.1229741 107.874194,99.1229741 L37.0884024,99.1229741 C36.6942744,99.1229741 36.3752424,99.4425101 36.3752424,99.8356301 C36.3752424,100.229254 36.6942744,100.54879 37.0884024,100.54879 L107.874194,100.54879 C108.267818,100.54879 108.587354,100.229254 108.587354,99.8356301" id="Fill-36" fill="#4E5D76" fill-rule="nonzero"></path>
                <polygon id="Fill-37" fill="#0C2C4E" fill-rule="nonzero" points="56.3755248 99.1229741 53.0738208 99.1229741 52.5032928 92.5568621 56.9868768 92.5568621"></polygon>
                <g id="Group-41" transform="translate(34.479043, 57.357552)">
                    <g id="Fill-39-Clipped">
                        <mask id="mask-2" fill="white">
                            <use xlink:href="#path-1"></use>
                        </mask>
                        <g id="path-1"></g>
                        <path d="M0.392112,5.52384 C0.392112,5.52384 12.659472,15.535296 11.159064,22.474368 L11.159064,22.474368 C9.65916,29.412936 14.440608,30.8196 17.253936,32.796288 L17.253936,32.796288 C20.067264,34.772976 18.941832,35.19936 18.941832,35.19936 L18.941832,35.19936 L21.473424,35.19936 C21.473424,35.19936 22.22388,30.163392 20.817216,28.10052 L20.817216,28.10052 C19.411056,26.037648 21.285936,22.193136 24.380496,16.94196 L24.380496,16.94196 C27.474552,11.691288 18.386424,0.346752 18.386424,0.346752 L18.386424,0.346752 L0.392112,5.52384 Z" id="Fill-39" fill="url(#linearGradient-3)" fill-rule="nonzero" opacity="0.603934152" mask="url(#mask-2)"></path>
                    </g>
                </g>
                <g id="Group" transform="translate(85.664830, 46.486474)" fill-rule="nonzero">
                    <polygon id="Fill-44" fill="#F09F45" points="-2.84217094e-14 0 -2.84217094e-14 4.385304 -2.84217094e-14 11.42568 -2.84217094e-14 14.732424 4.020408 11.42568 21.807072 11.42568 21.807072 0"></polygon>
                    <polygon id="Fill-46" fill="#FFFFFF" points="2.1595896 3.9355344 19.6670376 3.9355344 19.6670376 2.9567664 2.1595896 2.9567664"></polygon>
                    <polygon id="Fill-48" fill="#FFFFFF" points="2.1595896 6.2186544 19.6670376 6.2186544 19.6670376 5.2403904 2.1595896 5.2403904"></polygon>
                    <polygon id="Fill-49" fill="#FFFFFF" points="2.1590856 8.5027824 16.7594616 8.5027824 16.7594616 7.5245184 2.1590856 7.5245184"></polygon>
                </g>
                <path d="M16.2382752,156.518444 C16.2226512,156.50282 15.8411232,156.132884 15.1985232,155.432324 L16.0996752,154.606268 C16.7145552,155.276084 17.0844912,155.635436 17.0885232,155.638964 L16.2382752,156.518444 Z" id="Fill-50" fill="#F1CAC1" fill-rule="nonzero"></path>
                <path d="M74.868192,25.2244781 L73.700928,24.8605901 C73.983168,23.9538941 74.246256,23.0053661 74.482632,22.0422221 L75.67056,22.3330301 C75.428136,23.3213741 75.158496,24.2935901 74.868192,25.2244781 L74.868192,25.2244781 Z M72.684864,30.8219021 L71.581104,30.2957261 C71.994384,29.4278381 72.383976,28.5271901 72.737784,27.6179741 L73.877328,28.0609901 C73.512936,28.9984301 73.111248,29.9273021 72.684864,30.8219021 L72.684864,30.8219021 Z M69.697656,36.0403181 L68.684112,35.3568941 C69.23196,34.5434381 69.75108,33.7103261 70.22736,32.8792301 L71.28828,33.4870541 C70.797384,34.3433501 70.26264,35.2026701 69.697656,36.0403181 L69.697656,36.0403181 Z M66.031056,40.7885021 L65.108736,39.9851261 C65.76444,39.2326541 66.390408,38.4716141 66.970008,37.7241821 L67.93668,38.4726221 C67.342968,39.2392061 66.70188,40.0183901 66.031056,40.7885021 L66.031056,40.7885021 Z M61.899264,45.1118141 L61.04952,44.2323341 C61.779312,43.5277421 62.47836,42.8271821 63.127512,42.1498061 L64.010016,42.9965261 C63.349776,43.6849901 62.63964,44.3966381 61.899264,45.1118141 L61.899264,45.1118141 Z M57.490776,49.1276861 L56.68992,48.2043581 C57.464568,47.5325261 58.207464,46.8732941 58.897944,46.2458141 L59.720472,47.1504941 C59.022936,47.7850301 58.272984,48.4498061 57.490776,49.1276861 L57.490776,49.1276861 Z M52.9326,52.9525421 L52.15896,52.0055261 C52.959816,51.3518381 53.726904,50.7178061 54.440064,50.1205661 L55.224792,51.0580061 C54.508104,51.6582701 53.736984,52.2958301 52.9326,52.9525421 L52.9326,52.9525421 Z M48.298824,56.6720621 L47.539296,55.7139581 C48.33108,55.0869821 49.103208,54.4721021 49.856688,53.8673021 L50.622264,54.8218781 C49.866264,55.4276861 49.09212,56.0435741 48.298824,56.6720621 L48.298824,56.6720621 Z M43.634808,60.3462221 L42.879816,59.3835821 C43.67412,58.7611421 44.451288,58.1502941 45.212328,57.5515421 L45.968832,58.5121661 C45.207288,59.1114221 44.429112,59.7222701 43.634808,60.3462221 L43.634808,60.3462221 Z M38.967264,64.0097981 L38.211768,63.0486701 C39.004056,62.4252221 39.781728,61.8148781 40.545288,61.2156221 L41.30028,62.1772541 C40.53672,62.7765101 39.759552,63.3868541 38.967264,64.0097981 L38.967264,64.0097981 Z M34.313832,67.6874861 L33.552792,66.7303901 C34.341552,66.1034141 35.117208,65.4895421 35.880264,64.8862541 L36.637776,65.8463741 C35.876232,66.4481501 35.101584,67.0615181 34.313832,67.6874861 L34.313832,67.6874861 Z M29.683584,71.3928941 L28.915992,70.4418461 C29.699208,69.8098301 30.471336,69.1899101 31.230864,68.5815821 L31.995432,69.5366621 C31.235904,70.1434781 30.465792,70.7628941 29.683584,71.3928941 L29.683584,71.3928941 Z M25.104744,75.1451741 L24.311952,74.2137821 C24.803352,73.7959661 25.307856,73.3736141 25.81236,72.9588221 L26.607672,72.3111821 L27.379296,73.2592061 L26.587008,73.9048301 C26.08956,74.3135741 25.5906,74.7318941 25.104744,75.1451741 L25.104744,75.1451741 Z M20.722968,79.0950221 L19.877256,78.2115101 C20.584872,77.5346381 21.321216,76.8512141 22.066632,76.1798861 L22.884624,77.0880941 C22.148784,77.7513581 21.421512,78.4267181 20.722968,79.0950221 L20.722968,79.0950221 Z M16.600752,83.3064461 L15.698088,82.4813981 C16.35984,81.7571501 17.050824,81.0273581 17.752392,80.3111741 L18.625824,81.1669661 C17.934336,81.8725661 17.253432,82.5922781 16.600752,83.3064461 L16.600752,83.3064461 Z M12.797568,87.7991021 L11.833416,87.0471341 C12.438216,86.2724861 13.073256,85.4912861 13.721904,84.7267181 L14.654808,85.5169901 C14.017248,86.2694621 13.392288,87.0375581 12.797568,87.7991021 L12.797568,87.7991021 Z M9.385992,92.5865981 L8.35884,91.9238381 C8.891568,91.0977821 9.458064,90.2641661 10.0422,89.4456701 L11.0376,90.1553021 C10.464552,90.9591821 9.90864,91.7771741 9.385992,92.5865981 L9.385992,92.5865981 Z M6.452208,97.6714541 L5.36256,97.1165501 C5.809608,96.2380781 6.291432,95.3520461 6.794424,94.4806301 L7.852824,95.0924861 C7.36092,95.9447501 6.889176,96.8126381 6.452208,97.6714541 L6.452208,97.6714541 Z M4.090464,103.03603 L2.944368,102.609646 C3.289608,101.68279 3.670128,100.746862 4.07484,99.8265581 L5.19372,100.320982 C4.79808,101.218102 4.427136,102.13135 4.090464,103.03603 L4.090464,103.03603 Z M2.392992,108.639502 L1.202544,108.360286 C1.429344,107.394118 1.691928,106.416862 1.98324,105.456742 L3.153024,105.811558 C2.869776,106.746982 2.613744,107.698534 2.392992,108.639502 L2.392992,108.639502 Z M1.43388,114.41131 L0.217224,114.291862 C0.315,113.299486 0.447552,112.296022 0.611352,111.30919 L1.817928,111.509782 C1.657656,112.469902 1.528632,113.446654 1.43388,114.41131 L1.43388,114.41131 Z M0.028224,120.302062 C0.009072,119.770342 0,119.233078 0,118.70539 C0,118.235662 0.007056,117.760894 0.022176,117.293686 L1.244376,117.33199 C1.230264,117.786094 1.222704,118.248262 1.222704,118.70539 C1.222704,119.218966 1.231776,119.741614 1.24992,120.259222 L0.028224,120.302062 Z M0.63,126.283534 C0.465696,125.29267 0.332136,124.290214 0.232848,123.302878 L1.449,123.179902 C1.545768,124.141534 1.676304,125.118286 1.836072,126.082942 L0.63,126.283534 Z M1.971648,132.139006 C1.689408,131.175358 1.43388,130.19659 1.212624,129.231934 L2.40408,128.958262 C2.620296,129.899734 2.869776,130.85431 3.14496,131.795782 L1.971648,132.139006 Z M3.978072,137.79691 C3.591504,136.870054 3.227616,135.927574 2.896992,134.996686 L4.049136,134.586934 C4.372704,135.498166 4.729032,136.419478 5.107032,137.32567 L3.978072,137.79691 Z M6.568128,143.20735 C6.091344,142.327366 5.632704,141.427726 5.205312,140.535646 L6.30756,140.007454 C6.726888,140.881894 7.176456,141.762886 7.64316,142.62523 L6.568128,143.20735 Z M9.66924,148.33807 C9.113328,147.50899 8.571024,146.657734 8.057952,145.808998 L9.10476,145.176982 C9.608256,146.009086 10.139472,146.844214 10.6848,147.65767 L9.66924,148.33807 Z M13.236048,153.159334 C12.61512,152.399302 11.995704,151.602478 11.39544,150.790534 L12.37824,150.063766 C12.967416,150.859582 13.574232,151.640782 14.183064,152.386198 L13.236048,153.159334 Z" id="Fill-51" fill="#F1CAC1" fill-rule="nonzero"></path>
                <path d="M76.322736,19.3073669 L75.1212,19.0820789 C75.208392,18.6153749 75.293064,18.1340549 75.371688,17.6512229 L76.578264,17.8482869 C76.498128,18.3401909 76.411944,18.8315909 76.322736,19.3073669" id="Fill-52" fill="#F1CAC1" fill-rule="nonzero"></path>
                <path d="M113.283526,16.9695125 L112.827406,15.8350085 C113.702854,15.4832165 114.629206,15.3042965 115.580254,15.3042965 C115.706758,15.3042965 115.832254,15.3078245 115.957246,15.3138725 L115.896262,16.5355685 C115.00771,16.4917205 114.11059,16.6373765 113.283526,16.9695125 L113.283526,16.9695125 Z M120.474094,18.9436805 C119.933302,18.2385845 119.233246,17.6478965 118.449526,17.2341125 L119.01955,16.1525285 C119.959006,16.6474565 120.796654,17.3555765 121.444294,18.1992725 L120.474094,18.9436805 Z M109.734358,20.7338885 L108.574654,20.3458085 C108.911326,19.3403285 109.475806,18.3988565 110.206606,17.6237045 L111.096166,18.4628645 C110.485822,19.1100005 110.015086,19.8957365 109.734358,20.7338885 L109.734358,20.7338885 Z M122.28547,25.7905205 L121.175662,25.2764405 C121.55215,24.4639925 121.743166,23.5940885 121.743166,22.6904165 C121.743166,22.2348005 121.69327,21.7812005 121.59499,21.3417125 L122.788462,21.0750965 C122.905894,21.6017765 122.96587,22.1455925 122.96587,22.6904165 C122.96587,23.7725045 122.737054,24.8152805 122.28547,25.7905205 L122.28547,25.7905205 Z M109.257574,26.5087205 C108.699142,25.5858965 108.356422,24.5743685 108.23899,23.5018565 L109.454638,23.3688005 C109.552414,24.2628965 109.838182,25.1065925 110.303878,25.8751925 L109.257574,26.5087205 Z M117.561982,29.8063925 L117.234382,28.6285445 C118.098742,28.3881365 118.885486,27.9698165 119.572438,27.3856805 L120.364726,28.3165685 C119.54119,29.0171285 118.598206,29.5181045 117.561982,29.8063925 L117.561982,29.8063925 Z M114.393838,29.9802725 C113.330398,29.8089125 112.337518,29.4142805 111.443422,28.8084725 L112.128862,27.7959365 C112.874782,28.3009445 113.70235,28.6305605 114.588886,28.7736965 L114.393838,29.9802725 Z" id="Fill-53" fill="#F1CAC1" fill-rule="nonzero"></path>
                <rect id="Rectangle" fill="#4E5D76" fill-rule="nonzero" x="25.704" y="157.248" width="167.328" height="1.008" rx="0.504"></rect>
                <rect id="Rectangle-Copy" fill="#4E5D76" fill-rule="nonzero" x="12.096" y="157.248" width="11.088" height="1.008" rx="0.504"></rect>
            </g>
        </g>
    </g>
</svg>