<?xml version="1.0" encoding="UTF-8"?>
<svg width="46px" height="46px" viewBox="0 0 46 46" version="1.1" xmlns="http://www.w3.org/2000/svg" xmlns:xlink="http://www.w3.org/1999/xlink">
    <!-- Generator: Sketch 53.2 (72643) - https://sketchapp.com -->
    <title>logo</title>
    <desc>Created with Sketch.</desc>
    <defs>
        <radialGradient cx="50%" cy="0%" fx="50%" fy="0%" r="100.110376%" gradientTransform="translate(0.500000,0.000000),scale(1.000000,0.998897),rotate(90.000000),scale(1.000000,1.152000),translate(-0.500000,-0.000000)" id="radialGradient-1">
            <stop stop-color="#20C6B7" offset="0%"></stop>
            <stop stop-color="#4D9ABF" offset="100%"></stop>
        </radialGradient>
    </defs>
    <g id="Landing" stroke="none" stroke-width="1" fill="none" fill-rule="evenodd">
        <g transform="translate(-178.000000, -328.000000)" fill="url(#radialGradient-1)" fill-rule="nonzero" id="Group-2">
            <g transform="translate(177.000000, 327.000000)">
                <g id="Logo-/-Default">
                    <path d="M34.30638,16.9620336 C34.30074,16.9591536 34.29534,16.9571136 34.29006,16.9550736 C34.2801,16.9512336 34.27086,16.9477536 34.26222,16.9394736 C34.23426,16.9130736 34.22322,16.8656736 34.22934,16.8277536 L35.1561,11.1560496 L39.50694,15.5070336 L34.98282,17.4319536 C34.97034,17.4373536 34.95678,17.4401136 34.94322,17.4401136 C34.93434,17.4401136 34.9293,17.4401136 34.92486,17.4385536 C34.91874,17.4363936 34.9137,17.4313536 34.90182,17.4197136 C34.74198,17.2418736 34.5435,17.0832336 34.30638,16.9620336 Z M40.61622,16.6163136 L45.26778,21.2677536 C46.23414,22.2342336 46.71738,22.7174736 46.89414,23.2763136 C46.9203,23.3588736 46.94178,23.4423936 46.9587,23.5267536 L35.84286,18.8199936 C35.83722,18.8175936 35.83134,18.8151936 35.82534,18.8127936 C35.78034,18.7945536 35.72886,18.7737936 35.72886,18.7278336 C35.72886,18.6827136 35.7819,18.6609936 35.82606,18.6427536 C35.83086,18.6408336 35.83554,18.6389136 35.83998,18.6371136 L40.61622,16.6163136 Z M46.76862,25.0200336 C46.52874,25.4712336 46.06098,25.9389936 45.26778,26.7323136 L40.0251,31.9748736 L33.24246,30.5623536 C33.23118,30.5599536 33.21894,30.5580336 33.20658,30.5559936 C33.1473,30.5462736 33.08238,30.5355936 33.08238,30.4806336 C33.02034,29.9082336 32.75154,29.3972736 32.29662,29.0498736 C32.2689,29.0223936 32.2767,28.9789536 32.2839,28.9389936 C32.28486,28.9333536 32.28582,28.9278336 32.28678,28.9224336 L33.56322,21.0912336 C33.56454,21.0829536 33.56574,21.0741936 33.56706,21.0653136 C33.57534,21.0055536 33.58518,20.9353536 33.64062,20.9353536 C34.2111,20.8548336 34.70118,20.5758336 35.0319,20.1374736 C35.04186,20.1243936 35.04966,20.1120336 35.06442,20.1049536 C35.10222,20.0870736 35.14914,20.1057936 35.18766,20.1219936 L46.76862,25.0200336 Z M38.8185,33.1814736 L30.1953,41.8046736 L31.6725,32.7320736 C31.6731,32.7278736 31.6737,32.7236736 31.67418,32.7194736 C31.67574,32.7080736 31.67718,32.6967936 31.68138,32.6858736 C31.6929,32.6567136 31.72458,32.6442336 31.75458,32.6323536 C31.75938,32.6304336 31.76406,32.6286336 31.76862,32.6267136 C32.09634,32.4903936 32.37438,32.2740336 32.60286,32.0065536 C32.6319,31.9725936 32.6667,31.9409136 32.71086,31.9333536 C32.7207,31.9316736 32.7357,31.9327536 32.74554,31.9347936 L38.8185,33.1814736 Z M28.37046,43.6296336 L27.3981,44.6019936 L16.65282,29.0712336 C16.64886,29.0655936 16.64466,29.0599536 16.64034,29.0543136 C16.62342,29.0321136 16.60614,29.0091936 16.60866,28.9823136 C16.61034,28.9628736 16.6227,28.9471536 16.63506,28.9315536 C16.63902,28.9265136 16.6431,28.9213536 16.6467,28.9161936 C16.67958,28.8691536 16.70754,28.8211536 16.73814,28.7684736 C16.74606,28.7549136 16.7541,28.7409936 16.7625,28.7267136 L16.7649,28.7227536 C16.78158,28.6943136 16.79742,28.6673136 16.82658,28.6517136 C16.8519,28.6382736 16.8861,28.6439136 16.91418,28.6497936 L28.81962,31.1049936 C28.84926,31.1111136 28.88934,31.1235936 28.91094,31.1448336 C28.9263,31.1601936 28.92954,31.1768736 28.93314,31.1958336 C28.93446,31.2033936 28.93602,31.2113136 28.9383,31.2194736 C29.11302,31.8345936 29.5611,32.3666736 30.16698,32.6063136 C30.20058,32.6228736 30.1857,32.6607936 30.1701,32.7005136 C30.1629,32.7187536 30.15558,32.7373536 30.1527,32.7543936 C30.00294,33.6668736 28.71582,41.5117536 28.37046,43.6296336 Z M26.33994,45.6589536 C25.62378,46.3681536 25.20138,46.7431536 24.72366,46.8942336 C24.25278,47.0431536 23.74722,47.0431536 23.27634,46.8942336 C22.71738,46.7174736 22.23414,46.2342336 21.26778,45.2677536 L10.476492,34.4765136 L13.29462,30.1043136 C13.30854,30.0827136 13.32114,30.0631536 13.34214,30.0482736 C13.37274,30.0265536 13.41642,30.0369936 13.45218,30.0481536 C13.74222,30.1376736 14.01594,30.1740336 14.30802,30.1740336 C14.68494,30.1740336 15.04278,30.0987936 15.41802,29.9483136 C15.4497,29.9355936 15.48258,29.9280336 15.50802,29.9505936 C15.52014,29.9613936 15.53262,29.9762736 15.54174,29.9895936 L26.33994,45.6589536 Z M9.4359,33.4358736 L6.959472,30.9594336 L11.84928,28.8739536 C11.861832,28.8685536 11.875332,28.8657936 11.888976,28.8657936 C11.929488,28.8657936 11.953212,28.9063536 11.975352,28.9441536 C11.9808,28.9535136 11.986152,28.9626336 11.991636,28.9709136 C12.038292,29.0418336 12.084936,29.1036336 12.131592,29.1651936 C12.135264,29.1699936 12.143556,29.1792336 12.146976,29.1841536 C12.160836,29.2045536 12.150684,29.2243536 12.137352,29.2449936 L9.4359,33.4358736 Z M5.864592,29.8645536 L2.732256,26.7323136 C2.199516,26.1995136 1.813614,25.8135936 1.5449316,25.4809536 L11.067168,27.4555536 C11.078412,27.4578336 11.090544,27.4598736 11.102928,27.4619136 C11.162268,27.4715136 11.227212,27.4821936 11.227212,27.5371536 C11.227212,27.5967936 11.15676,27.6247536 11.096556,27.6485136 C11.086944,27.6523536 11.077596,27.6560736 11.068836,27.6597936 L5.864592,29.8645536 Z M0.99762,23.8703136 C1.00847786,23.6696736 1.0445454,23.4701136 1.10582256,23.2763136 C1.2825744,22.7174736 1.7658024,22.2342336 2.732256,21.2677536 L6.741468,17.2585536 C7.402092,18.2281536 11.765844,24.5319936 12.275208,25.2615936 C12.280176,25.2686736 12.2856,25.2759936 12.291132,25.2834336 C12.323652,25.3273536 12.359484,25.3757136 12.323184,25.4115936 C12.147552,25.6044336 11.97192,25.8155136 11.84844,26.0449536 C11.83386,26.0719536 11.815188,26.1026736 11.78904,26.1188736 C11.773128,26.1287136 11.756844,26.1252336 11.7387,26.1213936 L11.735988,26.1209136 L0.99762,23.8703136 Z M7.812816,16.1871936 L13.20234,10.7976216 C13.70886,11.0192256 15.55254,11.7983496 17.2005,12.4948056 C18.44958,13.0226736 19.5867,13.5032736 19.94346,13.6573536 C19.97934,13.6728336 20.0121,13.6869936 20.02794,13.7227536 C20.03742,13.7442336 20.03274,13.7725536 20.02794,13.7955936 C19.99158,13.9680336 19.97346,14.1404736 19.97346,14.3129136 C19.97346,14.9465136 20.22162,15.5393136 20.65578,15.9889536 C20.69154,16.0242336 20.65542,16.0759536 20.62386,16.1213136 C20.61798,16.1298336 20.61222,16.1381136 20.60718,16.1460336 L15.13602,24.6218736 C15.12114,24.6449136 15.10758,24.6660336 15.08454,24.6810336 C15.0555,24.6999936 15.01482,24.6914736 14.98122,24.6829536 C14.76798,24.6289536 14.5395,24.5939136 14.32878,24.5939136 C14.13294,24.5939136 13.91862,24.6306336 13.70322,24.6691536 L13.7013,24.6695136 C13.67802,24.6737136 13.65642,24.6776736 13.6371,24.6636336 C13.61598,24.6483936 13.59762,24.6239136 13.58286,24.6024336 L7.812816,16.1871936 Z M14.2905,9.7094616 L21.26778,2.7322656 C22.23414,1.7658048 22.71738,1.2825744 23.27634,1.10582352 C23.74722,0.956877 24.25278,0.956877 24.72366,1.10582364 C25.28262,1.2825744 25.76586,1.7658036 26.73222,2.7322656 L28.24422,4.2442056 L23.28222,11.9296536 C23.26794,11.9517576 23.25486,11.9719056 23.23314,11.9868576 C23.20314,12.0074856 23.16066,11.9977656 23.12562,11.9878056 C22.87446,11.9163816 22.62318,11.8806696 22.3719,11.8806696 C21.81366,11.8806696 21.25542,12.0850656 20.82126,12.4325376 C20.7891,12.4643256 20.74098,12.4447296 20.69958,12.4267296 C20.05158,12.1454136 15.01158,10.0143216 14.2905,9.7094616 Z M29.29746,5.2974816 L33.88014,9.8801736 L32.77674,16.7167536 C32.7759,16.7222736 32.77518,16.7286336 32.77458,16.7352336 C32.7729,16.7509536 32.77098,16.7682336 32.76546,16.7805936 C32.75466,16.8045936 32.73102,16.8099936 32.70582,16.8157536 C32.6973,16.8176736 32.68854,16.8197136 32.68002,16.8224736 C32.44794,16.8983136 32.23266,17.0051136 32.04774,17.1431136 C32.0391,17.1495936 32.0319,17.1571536 32.02494,17.1644736 C32.01102,17.1792336 31.99794,17.1929136 31.97646,17.1942336 C31.9623,17.1950736 31.93842,17.1919536 31.92534,17.1863136 L24.9435,14.2197936 C24.93894,14.2178736 24.93426,14.2159536 24.92946,14.2139136 C24.8853,14.1957936 24.83238,14.1739536 24.83238,14.1288336 C24.7947,13.7556336 24.67074,13.3825536 24.47646,13.0560336 C24.47154,13.0478736 24.4665,13.0395936 24.46122,13.0311936 C24.42702,12.9761136 24.39054,12.9176016 24.41886,12.8616216 L29.29746,5.2974816 Z M24.5799,15.6251136 L31.1241,18.3975936 C31.16154,18.4134336 31.19982,18.4296336 31.21506,18.4673136 C31.2231,18.4874736 31.21926,18.5137536 31.21518,18.5348736 C31.19682,18.6302736 31.18014,18.7404336 31.18014,18.8504736 L31.18014,19.0344336 C31.18014,19.0794336 31.1331,19.0989936 31.09014,19.1166336 C31.08534,19.1186736 31.08054,19.1205936 31.07598,19.1225136 C30.03954,19.5645936 16.51974,25.3297536 16.49982,25.3297536 C16.47918,25.3297536 16.45854,25.3297536 16.43778,25.3093536 C16.40214,25.2740736 16.43814,25.2223536 16.4697,25.1768736 C16.47558,25.1684736 16.48134,25.1601936 16.4865,25.1522736 L21.86538,16.8253536 C21.8685,16.8205536 21.87162,16.8156336 21.87474,16.8107136 C21.90654,16.7604336 21.94218,16.7043936 21.99978,16.7043936 C22.01814,16.7069136 22.03626,16.7095536 22.05402,16.7120736 C22.17606,16.7297136 22.2843,16.7453136 22.39266,16.7453136 C23.20878,16.7453136 23.96454,16.3471536 24.4215,15.6687936 C24.43362,15.6507936 24.44454,15.6347136 24.4617,15.6212736 C24.49434,15.5959536 24.54186,15.6089136 24.5799,15.6251136 Z M17.08482,26.6466336 L31.82106,20.3629536 C31.82106,20.3629536 31.84182,20.3630736 31.86246,20.3834736 C31.94322,20.4631536 32.01126,20.5181136 32.07666,20.5675536 C32.08638,20.5748736 32.09778,20.5814736 32.1093,20.5881936 C32.13954,20.6057136 32.17026,20.6235936 32.1723,20.6556336 C32.1729,20.6666736 32.1717,20.6750736 32.1699,20.6859936 L30.90678,28.4399136 C30.9051,28.4497536 30.90378,28.4601936 30.90234,28.4707536 C30.8943,28.5317136 30.8853,28.5999936 30.82866,28.5999936 C30.1437,28.6398336 29.53734,29.0288736 29.18154,29.6159136 C29.17962,29.6191536 29.1777,29.6222736 29.17578,29.6253936 C29.15934,29.6531136 29.1435,29.6796336 29.11458,29.6941536 C29.09022,29.7062736 29.0577,29.7009936 29.03118,29.6954736 L17.28018,27.2712336 C17.26902,27.2689536 17.09718,26.6485536 17.08482,26.6466336 Z" id="logomark"></path>
                </g>
            </g>
        </g>
    </g>
</svg>